<?xml version="1.0" standalone="no"?>
<!DOCTYPE svg PUBLIC "-//W3C//DTD SVG 20010904//EN"
 "http://www.w3.org/TR/2001/REC-SVG-20010904/DTD/svg10.dtd">
<svg version="1.0" xmlns="http://www.w3.org/2000/svg"
 width="1232.000000pt" height="1232.000000pt" viewBox="0 0 1232.000000 1232.000000"
 preserveAspectRatio="xMidYMid meet">
<metadata>
Created by potrace 1.11, written by Peter Selinger 2001-2013
</metadata>
<g transform="translate(0.000000,1232.000000) scale(0.100000,-0.100000)"
fill="#000000" stroke="none">
<path d="M3675 8853 c-16 -2 -59 -11 -95 -20 -54 -14 -73 -25 -116 -68 -59
-59 -80 -121 -71 -214 8 -97 69 -182 153 -217 44 -18 160 -18 287 2 123 19
246 20 307 4 154 -40 253 -192 280 -428 6 -55 10 -720 10 -1788 0 -1883 3
-1805 -64 -1949 -44 -94 -91 -145 -168 -181 -57 -26 -73 -29 -168 -29 -58 0
-140 6 -184 13 -43 8 -124 14 -180 15 -113 2 -168 -16 -218 -69 -78 -85 -76
-288 3 -379 17 -19 55 -46 85 -60 87 -41 169 -42 449 -5 511 67 560 72 825 71
222 0 341 -12 850 -86 158 -23 253 -16 334 24 101 51 139 122 139 256 0 224
-131 301 -425 250 -57 -10 -150 -19 -208 -19 -94 -1 -111 2 -162 26 -104 49
-179 149 -224 303 -16 54 -18 126 -22 740 -2 478 0 695 8 731 16 77 59 137
116 165 l49 24 560 -3 c568 -3 661 -8 817 -43 215 -47 330 -126 399 -274 76
-162 91 -316 87 -945 -3 -516 0 -552 57 -721 69 -205 229 -373 429 -450 147
-57 247 -72 466 -73 214 0 277 9 417 64 123 47 201 98 293 190 92 93 144 172
190 293 59 151 61 172 73 707 16 726 16 735 -11 794 -54 118 -127 166 -253
168 -99 1 -147 -14 -202 -63 -81 -70 -81 -70 -84 -629 -2 -383 -6 -506 -19
-583 -25 -160 -66 -259 -135 -328 -62 -62 -118 -83 -219 -84 -77 0 -92 3 -152
33 -77 38 -110 73 -149 157 -56 121 -62 181 -60 601 2 401 -7 570 -40 739 -37
190 -99 335 -184 431 -48 56 -155 139 -220 172 -60 30 -234 89 -304 103 -34 6
-61 15 -61 19 0 4 26 13 58 20 101 22 354 101 421 131 362 163 530 335 635
649 46 139 66 282 66 471 -1 347 -72 590 -236 806 -56 72 -131 143 -239 224
-83 62 -97 70 -204 118 -344 154 -784 215 -1402 192 -302 -12 -685 -31 -1008
-52 -260 -17 -616 -6 -996 31 -170 16 -319 29 -330 28 -11 0 -33 -3 -50 -5z
m2965 -498 c460 -76 723 -277 812 -620 20 -78 23 -114 23 -270 0 -197 -14
-271 -76 -420 -92 -219 -310 -384 -614 -465 -222 -58 -276 -62 -920 -70 -341
-4 -621 -4 -649 1 -28 5 -61 16 -74 25 -52 34 -52 34 -52 712 0 648 3 727 40
826 25 65 94 146 156 182 90 53 316 97 574 114 203 13 666 4 780 -15z"/>
</g>
</svg>
